<?xml version="1.0" encoding="UTF-8"?>
<svg id="Layer_2" data-name="Layer 2" xmlns="http://www.w3.org/2000/svg" viewBox="0 0 716.87 680.49">
  <defs>
    <style>
      .cls-1 {
        fill: #c62828;
      }

      .cls-2 {
        fill: #ff8f00;
      }

      .cls-3 {
        fill: #fbc02d;
      }
    </style>
  </defs>
  <g id="Layer_1-2" data-name="Layer 1">
    <g id="bMTJLs.tif">
      <g>
        <path class="cls-2" d="M322.81,357.86l225.53,225.46,1.42,2.43c-44.88,46.74-107.73,78.92-171.76,89.94C162.09,712.83-27.41,528.94,3.28,312.18,24.75,160.47,155.11,40.99,309.08,35.67c2.34-.08,13.73-.75,13.73,1.52v320.68Z"/>
        <path class="cls-3" d="M621.74,130.41c1.98-.35,15.97,15.65,18.2,18.23,38.35,44.51,65.22,104.26,73.66,162.52,14.4,99.44-19.39,204.04-91.12,274.15l-227.43-227.45,226.69-227.45Z"/>
        <path class="cls-1" d="M367.6,320.7V.03c82.07-1.09,162.72,32.2,221.95,88.04,1.35,1.27,5.11,4.46,5.11,6.12l-227.06,226.51Z"/>
      </g>
    </g>
  </g>
</svg>