<?xml version="1.0" encoding="UTF-8"?>
<svg id="Layer_2" data-name="Layer 2" xmlns="http://www.w3.org/2000/svg" viewBox="0 0 667.29 688.05">
  <defs>
    <style>
      .cls-1 {
        fill: #dc636e;
      }

      .cls-2 {
        fill: #a8d77f;
      }

      .cls-3 {
        fill: #c62828;
      }

      .cls-4 {
        fill: #ff8f00;
      }

      .cls-5 {
        fill: #fbc02d;
      }

      .cls-6 {
        fill: #80bb92;
      }

      .cls-7 {
        fill: beige;
      }
    </style>
  </defs>
  <g id="Layer_1-2" data-name="Layer 1">
    <path class="cls-4" d="M665.9,492.91l1.39.33c-34.16,69.02-91.11,125.01-160.07,159.05-9.33,4.61-16.52,7.33-26.01,11.01.28-2.64-2-7.54-2-9.51V35.58c0-8.5,6.73-15.02,10.35-21.53.48-.87-.43-1.92-.34-1.98.18-.13,1.83.1,2.87-.58,8.35-5.44,11.36-8.78,22.14-9.43,1.04-1.65,3.79-.99,5.48-1.01,32.63-.41,70.98-2.15,103.05.02,22.34,1.51,39.51,14.11,41.52,37.52,3.63,42.52-2.65,90.03-.04,133.08l3.05,7.46-1.27.74c.38,103.24.65,209.85-.12,313.04Z"/>
    <path class="cls-5" d="M444.23,316.64v337.19c-.22,10.31-8.06,16.9-12.04,25.47-42.11,9.67-79.51,10.77-122.05,6-1.63-.18-3.38.2-5.01,0l-16-3c-6.1-.83-11-1.64-17.01-3-3.49-6.34-8.9-11.29-10.94-18.57-1.77-116.71-1.77-234.26,0-350.99,12.04-32.44,37.6-27.79,65.42-27.54,27.03.25,54.07-.39,81.09-.05,1.7.02,4.45-.65,5.49,1.01-12.5-1.34-25.97-1.16-39.65-.65,13.23.12,26.45.33,39.65.65,15.46,1.66,29.74,18.39,31.05,33.48Z"/>
    <path class="cls-7" d="M0,322.17c.95-30.61,6.95-60.94,15.24-90.34l1.76-1.69c40.01-30.43,76.8-67.65,116.58-98,12.88-9.83,24.14-12.79,38.81-3.85l81.73,65.38,2.28.36,70.62-70.62c.46-1.24-.21-1.91-.83-2.85-5.1-7.59-21.92-18.05-24.4-26.64-3.46-11.98,2.33-20.48,13.33-24.34,35.82-12.57,77.17-18.8,113.6-30.53,11.49,0,20.61,10.04,19.36,21.43l-30.18,113.89c-4.08,9.77-11.75,13.19-22.16,11.68-9.17-1.33-17.94-15.29-25.1-20.9l-93.53,92.53c-10.34,8.76-24.52,8.72-35.75,1.71-25.75-16.06-52.34-43.11-77.41-61.64-2.11-1.56-6.71-5.82-8.92-5.23L0,322.17Z"/>
    <path class="cls-3" d="M225.15,459.68c-.42-18.85-13.58-34.89-31.83-39.21-27.36.17-54.93-1.13-82.27-.26-1.04-1.66-3.8-1-5.49-1.02-14.14-.17-33.9-1.36-46.24,5.81-24.67,14.34-19.03,42.5-19.28,66.75-.02,1.69.63,4.45-1.02,5.49,8.61,16.92,16.83,29.76,28.01,45.01,40.05,54.63,91.86,95.87,155.07,121.05,1.76-4.03,2.72-9.1,3.04-13.47,4.44-61.44-3.45-128.16.01-190.15ZM67.96,542.28c-.07-.21-.14-.43-.2-.64.8-.52.23.73.2.64Z"/>
    <path class="cls-2" d="M67.96,542.28c-.07-.21-.14-.43-.2-.64.8-.52.23.73.2.64Z"/>
    <path class="cls-6" d="M67.96,542.28c-.07-.21-.14-.43-.2-.64.8-.52.23.73.2.64Z"/>
    <path class="cls-1" d="M305.13,685.3c-5.21-.63-11.43-.63-16.01-3,5.13.7,11.7.21,16.01,3Z"/>
  </g>
</svg>