<?xml version="1.0" encoding="UTF-8"?>
<svg id="Layer_2" data-name="Layer 2" xmlns="http://www.w3.org/2000/svg" xmlns:xlink="http://www.w3.org/1999/xlink" viewBox="0 0 3614.85 919.84">
  <defs>
    <style>
      .cls-1 {
        fill: #f58220;
      }

      .cls-2 {
        fill: #050505;
      }

      .cls-3 {
        fill: #010101;
      }

      .cls-4 {
        fill: url(#linear-gradient-2);
      }

      .cls-5 {
        fill: #f04f24;
      }

      .cls-6 {
        fill: #030303;
      }

      .cls-7 {
        fill: #050404;
      }

      .cls-8 {
        fill: url(#radial-gradient);
      }

      .cls-9 {
        fill: url(#linear-gradient);
      }

      .cls-10 {
        fill: #fbfcfc;
      }

      .cls-11 {
        fill: #f04e23;
      }

      .cls-12 {
        fill: #020101;
      }

      .cls-13 {
        fill: #f04e24;
      }

      .cls-14 {
        fill: #060606;
      }

      .cls-15 {
        fill: #020202;
      }

      .cls-16 {
        fill: #fffffe;
      }

      .cls-17 {
        fill: #fff;
      }

      .cls-18 {
        fill: #fffefe;
      }

      .cls-19 {
        fill: #040404;
      }

      .cls-20 {
        fill: #f05228;
      }

      .cls-21 {
        fill: #fefefe;
      }

      .cls-22 {
        fill: #0c0c0c;
      }

      .cls-23 {
        fill: #fafbfb;
      }

      .cls-24 {
        fill: #fdfefe;
      }
    </style>
    <radialGradient id="radial-gradient" cx="295.63" cy="404.85" fx="295.63" fy="404.85" r="357.56" gradientUnits="userSpaceOnUse">
      <stop offset="0" stop-color="#999b9e"/>
      <stop offset=".5" stop-color="#fff"/>
      <stop offset="1" stop-color="#949699"/>
    </radialGradient>
    <linearGradient id="linear-gradient" x1="907.15" y1="158.46" x2="97.86" y2="596.2" gradientUnits="userSpaceOnUse">
      <stop offset="0" stop-color="#f58220"/>
      <stop offset="1" stop-color="#f04e23"/>
    </linearGradient>
    <linearGradient id="linear-gradient-2" x1="735.12" y1="287.1" x2="115.27" y2="622.38" gradientUnits="userSpaceOnUse">
      <stop offset="0" stop-color="#bdbec0"/>
      <stop offset="1" stop-color="#949699"/>
    </linearGradient>
  </defs>
  <g id="Layer_1-2" data-name="Layer 1">
    <path d="M1215.74,452.4c37.87,2.34,116.75-9.51,141.38,25.66,19.46,27.8,12.57,67.71-18.1,83.25-5.42,2.75-14.77-.08-15.06,5.54,3.27.27,7.6,2.24,9.71,4.6,22.41,25,29.44,74.45,47.54,103.56h-49.32c-14.34-17.52-22.14-70.86-36.42-84.44-7.84-7.46-24.86-7.87-35.17-7.78v92.23h-44.55v-222.61Z"/>
    <path d="M783,675.02h-50.91l-16.27-50.5c-12.67.88-88.94-3.26-92.27,1.51l-15.55,49h-47.73l84.31-219.45c3.89-4.68,43.91-4.9,49.36-1.61,11.97,7.23,74.31,194.95,89.06,221.05Z"/>
    <path d="M1632.58,675.02h-50.91l-16.27-50.5c-12.67.88-88.94-3.26-92.27,1.51l-15.55,49h-47.73l84.27-219.49c3.88-4.67,44.07-4.79,49.4-1.57,11.8,7.12,74.73,194.81,89.06,221.05Z"/>
    <path d="M948.28,455.75l-3.03,38c-25.12-15.82-97.97-12.3-77.86,31.75,11.02,24.15,87.43,19.76,93.8,74.77,10,86.28-78.88,86.45-140.02,71.53l6.42-41.3c20.14,17.51,89.22,22.71,89.23-14.32,0-29.53-68.48-36.33-87.49-62.2-19.66-26.77-13.43-68.57,13.1-88.3,31.79-23.64,69.84-15.84,105.85-9.93Z"/>
    <path class="cls-3" d="M1171.2,452.4c-.63,6.79,2.79,38.16-4.77,38.16h-58.87v184.45h-44.55v-184.45h-63.64v-38.16h171.82Z"/>
    <path class="cls-11" d="M3078.76,461.94c50.63,8.51,54.29,89.81,4.83,106.54,25.03,29.47,37.08,73.75,50.84,109.7-8-.83-21.38,2.85-27.13-3.07-7.05-7.25-22.82-60.19-30.52-74.45-12.07-22.37-25.44-26.21-50.53-24.24v101.77h-25.46v-216.25c23.66,2.79,55.43-3.79,77.96,0Z"/>
    <path class="cls-5" d="M3611.73,446.04v232.16c-18.38-.53-25.36,6.16-22.29-15.89-14.43,6.01-19.36,16.58-36.85,18.78-108.76,13.66-93.65-207.55,13.63-162.53,9.34,3.92,14.04,11.54,23.24,13.35v-85.87h22.27Z"/>
    <path class="cls-13" d="M2719.69,664.37c-13.87,12.93-38.7,18.55-57.41,16.65-95.34-9.67-82.09-194.18,30.52-164.06,58.38,15.61,65.9,111.06,26.89,147.41Z"/>
    <path class="cls-11" d="M3276.53,664.37c-13.87,12.93-38.7,18.55-57.41,16.65-95.34-9.67-82.09-194.18,30.52-164.06,58.38,15.61,65.9,111.06,26.89,147.41Z"/>
    <path class="cls-11" d="M3446.26,678.17c-15.82.79-26.21,3.2-27.02-15.86-39.5,38.27-103.33,18.32-93.67-42.75,3.48-22.01,27.34-35.1,47.34-38.53,23.21-3.97,69.15,8.08,41.12-34.39-19.1-28.94-70.14,4.05-72.75,1.16-3.36-24.68,3.5-25.87,24.73-30.9,110.39-26.15,66.54,99.37,80.24,161.29Z"/>
    <path class="cls-3" d="M3058.11,888.08l44.87-107.74,21.93-.4,9.6,134.93c-.46,3.14-14.32,2.57-15.64,1.48-5.82-4.84-3.97-85-9.93-98.21l-40.99,96.59c-2.47,3.11-11.34,3.02-14.3,2.16-5.29-1.54-33.67-90.74-41.72-101.99l-8.4,96.59c-2.42,7.33-12.47,5.13-18.64,5.19,5.22-15.97,7.33-132.68,13.16-136.27,3.44-2.12,17.04-1.37,20.25,2.7l39.79,104.95Z"/>
    <path class="cls-3" d="M2275.31,675l-19.09.03-.02-22.28c-33.77,50.28-123.91,26.55-100.93-38.91,12.61-35.94,65.62-38.81,97.79-37.4,6.15-59.11-41.93-56.89-82.73-38.19.86-4.96-1.77-15.14.43-18.62,1.03-1.62,28.63-9.11,33.3-9.64,105.39-11.98,54.46,103.05,71.24,165.01Z"/>
    <polygon class="cls-5" points="2618.97 461.94 2618.97 484.2 2558.51 484.2 2558.51 678.2 2533.06 678.2 2533.06 484.2 2472.6 484.2 2472.6 461.94 2618.97 461.94"/>
    <path class="cls-15" d="M1934.86,675.02h-19.09v-116.08c0-1.26-8.89-21.07-10.53-22.88-12.67-13.92-42.85-11.71-56.44.46-4.22,3.78-15.75,24.69-15.75,28.78v109.72h-22.27v-162.19l19.11-.02,1.56,25.44c14.32-31.81,65.2-39.87,88.79-15.57,3.47,3.58,14.64,23.11,14.64,26.71v125.62Z"/>
    <path class="cls-6" d="M1988.95,531.91c-2.88-2.9-38.81,8.14-31.55-13.98,3.25-9.88,29.45-2.83,31.56-5.08,1.67-1.78,2.61-41.43,3.92-48.56,5.85-31.97,28.83-33.17,56.54-30.98l-.03,19.08c-11.25-6.88-38.17.67-38.17,14.33v46.11h35.02c10.53,28.76-35.02,16.55-35.02,19.08v143.11h-22.27c-3.85-17.55,5.05-138.03,0-143.11Z"/>
    <path class="cls-15" d="M2730.34,878.55v-98.59h15.91v136.75l-16.02-4.66-69.89-100.28v104.95c-4.54.84-19.09.09-19.09-4.77v-131.98c7.03.3,15.27-2.15,20.67,3.2,22.59,31.72,42.53,66.71,68.43,95.39Z"/>
    <path class="cls-15" d="M2036.68,779.96l18.46.66,67.45,97.93v-93.82c0-4.86,14.55-5.61,19.09-4.77v136.75l-15.27-.66-73.83-104.28v104.95h-15.91v-136.75Z"/>
    <path class="cls-15" d="M2883.07,902.4c-2.33,7.47-37.73,17.45-46.14,17.44-91.44-.02-87.31-157.84,11.97-142.28,19.44,3.04,33.2,9.84,24.59,31.02-29.45-26.35-76.51-18.41-82.42,24.14-5.86,42.27,11.22,75.25,58.38,67.87,22.7-3.55,12.62-23.92,14.54-41.13l-31.85.03.02-15.92h50.91c-2.88,15.03,3.92,46.25,0,58.83Z"/>
    <path class="cls-3" d="M2275.32,907.17c-68.19,33.19-124.16-9.78-106-85.28,8.51-35.4,46.25-51.09,79.96-42.94,20,4.84,24.05,9.68,19.65,29.63-23.02-20.25-64.82-23.45-78.69,8.78-13.11,30.45-6.9,78.74,32.5,83.51,37.8,4.57,39.36-6.91,36.69-41.42-17.4-1.68-36.53,8.44-35.02-15.88h50.91v63.6Z"/>
    <path class="cls-20" d="M2870.34,446.04v232.16c-5.15.28-25.46,1.37-25.46-4.77v-227.38h25.46Z"/>
    <path class="cls-20" d="M2803.52,446.04v227.38c0,6.14-20.31,5.05-25.46,4.77v-232.16h25.46Z"/>
    <path class="cls-3" d="M2451.92,779.96c38.82,6.41,42,67.46,1.59,73.18-3.61,4.22,35.64,48.58,38.2,58.73-.96,4.91-14.28,6.65-18.5,4.18-4.23-2.48-28.68-47.02-38.57-55.2-5.39-4.46-16.13-6.75-16.13.21v55.65h-15.91v-136.75c15.18,1.74,34.85-2.39,49.32,0Z"/>
    <path class="cls-3" d="M3317.4,779.96c38.82,6.41,42,67.46,1.59,73.18-3.61,4.22,35.64,48.58,38.2,58.73-.96,4.91-14.28,6.65-18.5,4.18-4.23-2.48-28.68-47.02-38.57-55.2-5.39-4.46-16.13-6.75-16.13.21v55.65h-15.91v-136.75c15.18,1.74,34.85-2.39,49.32,0Z"/>
    <path class="cls-12" d="M2570.81,780.41c5.94,3.81,42.03,116.37,51.34,131.45-.94,4.85-16.03,6.83-18.77,4.48-2.59-2.22-9.59-38.66-16.18-42.62-4.85-2.92-45.64-2.64-51.01.01-13.12,6.49-7.98,51.97-34.94,42.96l49.28-133.57c3.14-4.07,17.01-4.81,20.27-2.72Z"/>
    <path class="cls-12" d="M3439.39,780.51c6.04,3.62,42.96,115.79,51.24,131.2-23.32,22.08-24.35-31.71-34.76-37.99-4.21-2.54-36.35-2.51-43.2-1.71-24.84,2.88-11.32,52.47-42.76,44.69l50.56-134.77c2.6-3.28,16.04-3.14,18.92-1.42Z"/>
    <path class="cls-12" d="M1966.32,780.34l51.26,133.15c-4.78.3-15.08,5.63-18.81,2.96-1.9-1.36-13.27-41.62-16.7-43.73-1.95-1.2-40.27-1.39-45.79-.71-23.15,2.86-9.86,55.82-42.76,44.68l51.21-136.41,21.6.06Z"/>
    <path class="cls-3" d="M3532.18,779.96v54.06c5.55,1.38,6.36-2.3,9.57-4.75,22.2-17,38.96-54.73,69.98-49.28-5.84,11.45-61.44,57.87-60.23,64.73,7.32,10.19,63.16,60.62,63.35,67.22.16,5.73-13.71,5.56-18.99,3.13-15.69-7.25-44.82-52.14-63.68-61.96v63.6h-15.91v-136.75h15.91Z"/>
    <path class="cls-19" d="M2323.05,795.86v41.34h44.55v15.9h-44.55v47.7h57.27v15.9h-76.37v-136.75h71.59c5.99,0,5.99,15.9,0,15.9h-52.5Z"/>
    <polygon class="cls-15" points="3239.45 779.96 3239.45 795.86 3185.35 795.86 3185.35 837.21 3229.9 837.21 3229.9 853.11 3185.35 853.11 3185.35 900.81 3242.63 900.81 3242.63 916.71 3166.26 916.71 3166.26 779.96 3239.45 779.96"/>
    <rect class="cls-7" x="1747.12" y="452.4" width="22.27" height="222.61"/>
    <path class="cls-12" d="M2071.68,520.78c-.16-1.37-4.37-4.37-3.17-7.93l22.28-.04c2.27,2.26-4.27,24,3.12,25.43,6.7-23.8,27.83-31.51,50.97-28.61v22.29c-22.58-1.64-37.25-1.07-46.93,21.47-1.46,3.39-7.18,22.57-7.18,24.63v97h-19.09c-4.14-48.81,5.57-106.53,0-154.24Z"/>
    <path class="cls-22" d="M2399.42,420.6v311.66c0,.64-12.73.64-12.73,0v-311.66c0-.64,10.45.42,12.73,0Z"/>
    <path class="cls-2" d="M1903.04,779.96l.02,15.92-41.38-.02v116.08c0,4.86-14.55,5.61-19.09,4.77v-120.85c-8.92-1.49-41.68,4.08-44.49-4.82-1.22-3.87,2.05-11.08,4.72-11.08h100.23Z"/>
    <path class="cls-14" d="M2959.44,856.29c.44.46.64,12.72,0,12.72h-44.55c-.64,0-.64-12.72,0-12.72,6.48,0,43-1.6,44.55,0Z"/>
    <path class="cls-21" d="M1260.29,547.81v-57.24c82.41-12.58,81.04,69.16,0,57.24Z"/>
    <polygon class="cls-24" points="700.27 589.15 639.82 589.15 670.04 500.07 700.27 589.15"/>
    <polygon class="cls-24" points="1549.85 589.15 1489.39 589.15 1519.62 500.07 1549.85 589.15"/>
    <path class="cls-16" d="M3026.26,554.17v-69.96c29.4.1,67.06-7.09,67.08,33.39.02,36.48-38.8,37.89-67.08,36.57Z"/>
    <path class="cls-17" d="M3537.77,535.76c69.55-11.31,65.32,144.18-5.77,121.92-37.85-11.85-39.82-114.51,5.77-121.92Z"/>
    <path class="cls-17" d="M2662.71,535.83c70.73-11.19,71.24,114.85,18.11,123.07-72.2,11.17-72.93-114.4-18.11-123.07Z"/>
    <path class="cls-17" d="M3219.55,535.83c70.73-11.19,71.24,114.85,18.11,123.07-72.2,11.17-72.93-114.4-18.11-123.07Z"/>
    <path class="cls-18" d="M3420.83,598.68c2.18,32.34-8.09,64.33-46.2,60.54-19.9-1.98-25.65-10.82-23.95-30.31,2.55-29.18,47.87-30.67,70.15-30.23Z"/>
    <path class="cls-21" d="M2253.07,595.49c3.9,37.01-9.61,71.54-52.56,66.9-28.99-3.13-36.57-38.52-14.09-55.56,19.37-14.69,43.94-11.16,66.65-11.34Z"/>
    <path class="cls-10" d="M2418.51,840.39v-44.52c61.77-11.12,61.78,55.64,0,44.52Z"/>
    <path class="cls-10" d="M3283.99,840.39v-44.52c61.77-11.12,61.78,55.64,0,44.52Z"/>
    <path class="cls-23" d="M2580.77,856.27h-38.16s15.93-50.86,15.93-50.86c6.05,3.51,24.32,49,22.23,50.86Z"/>
    <path class="cls-23" d="M3449.44,856.27h-38.16s15.93-50.86,15.93-50.86c7.14,2.65,24.33,49,22.23,50.86Z"/>
    <polygon class="cls-23" points="1976.22 856.26 1934.86 856.26 1953.99 805.43 1976.22 856.26"/>
    <path class="cls-8" d="M573.6,502.12c-49.82,136.68-179.2,206.64-297.39,211.11-28.43,1.12-50.8-3.36-68.31-10.66-55.28-23.23-62.72-75.55-62.72-75.55,10.13,23.36,34.81,42.12,68.64,52.19,33.37,10,75.61,11.58,121.75.99,92.99-21.26,165.25-67.72,215.66-185.38,21.72-50.74,20.66-103.71,12.44-147.54-4.21-22.24-10.27-42.18-16.12-58.24-9.34-25.6-18.16-41.46-18.16-41.46C426.91,80.94,250.48,114.57,250.48,114.57,6.86,156.56.14,380.57.14,380.57c-2.83-88.51,35.8-189.27,147.81-251.45,112.01-62.19,280.28-27.84,344.44,35.27,28.43,27.97,56.66,69.03,75.55,117.67,6.91,17.64,12.57,36.19,16.58,55.54,10.73,51.4,9.74,107.93-10.92,164.52Z"/>
    <path class="cls-1" d="M821.44,0c-5,17.64-22.64,58.83-93.25,138.66-70.55,79.76-223.42,93.25-461.19,215.06-118.92,60.87-159.39,112.99-170.25,149.85-7.63,25.93,2.04,54.03,22.9,71.27,179.92,148.79,345.36,42.71,351.48,38.7-106.54,97.33-261.26,42.58-280.61,32.51-8.03-4.21-55.81-24.81-95.82-61.79-55.81-51.53-96.48-134.91,6.78-249.88C277.53,138.33,813.67,1.97,821.37.07l.07-.07Z"/>
    <path class="cls-9" d="M821.44,0c-5,17.64-22.64,58.83-93.25,138.66-70.55,79.76-223.42,93.25-461.19,215.06-118.92,60.87-159.39,112.99-170.25,149.85-7.63,25.93,2.04,54.03,22.9,71.27,179.92,148.79,345.36,42.71,351.48,38.7-106.54,97.33-261.26,42.58-280.61,32.51-8.03-4.21-55.81-24.81-95.82-61.79-21.91-27.11-35.08-58.44-31-93.65,15.93-137.74,310.29-282.12,482.18-333.52C764.58,91.8,819.72,2.83,821.37.07l.07-.07Z"/>
    <path class="cls-4" d="M708.9,238.62c-30.47,44.62-73.31,74.36-124.38,98.98-6.78,3.29-13.75,6.51-20.86,9.67-42.12,18.56-89.1,34.81-138.86,53.5-46.92,17.64-99.11,42.84-147.74,66.34-173.87,84.04-131.88,159.91-131.88,159.91,0,0,7.44,52.32,62.72,75.55-20.8-1.25-41.79-15.73-56.92-29.09-20.07-17.77-33.89-41.92-36.59-68.57-7.04-67.91,48.44-117.67,48.44-117.67,76.86-80.75,253.1-152.81,384.72-198.22,6.91-2.43,13.75-4.74,20.4-6.98,81.27-27.38,140.96-43.43,140.96-43.43Z"/>
  </g>
</svg>